<svg width="160" height="160" viewBox="0 0 160 160" fill="none" xmlns="http://www.w3.org/2000/svg">
<rect width="160" height="160" rx="37" fill="url(#paint0_linear_1368_128)"/>
<path d="M121.5 104.833L112.517 97.05C112.22 96.7685 111.847 96.5806 111.444 96.5099C111.041 96.4391 110.626 96.4886 110.251 96.6521C109.875 96.8157 109.557 97.086 109.334 97.4294C109.112 97.7729 108.996 98.1742 109 98.5834V100.667C109 101.772 108.561 102.832 107.78 103.613C106.998 104.394 105.938 104.833 104.833 104.833H96.5C95.3949 104.833 94.3351 104.394 93.5537 103.613C92.7723 102.832 92.3333 101.772 92.3333 100.667C92.3333 90.0625 75.7042 84.125 56.9167 84C54.154 84 51.5045 85.0975 49.551 87.051C47.5975 89.0045 46.5 91.654 46.5 94.4167C46.5 97.1794 47.5975 99.8289 49.551 101.782C51.5045 103.736 54.154 104.833 56.9167 104.833C74.2208 104.833 76.6875 57.7709 80.7 48.5834C81.3778 47.0325 82.4233 45.6702 83.7461 44.6142C85.0688 43.5583 86.6289 42.8406 88.2914 42.5232C89.9539 42.2058 91.6687 42.2983 93.2874 42.7926C94.9061 43.287 96.3799 44.1683 97.5814 45.3604C98.7829 46.5524 99.6759 48.0193 100.183 49.6341C100.69 51.2488 100.796 52.9628 100.492 54.6278C100.188 56.2927 99.4821 57.8584 98.4366 59.1894C97.3912 60.5204 96.0371 61.5767 94.4917 62.2667M46.5 121.5H121.5" stroke="white" stroke-width="6" stroke-linecap="round" stroke-linejoin="round"/>
<defs>
<linearGradient id="paint0_linear_1368_128" x1="-33" y1="-23.5" x2="188.5" y2="175" gradientUnits="userSpaceOnUse">
<stop stop-color="#0EA5E9"/>
<stop offset="0.737383" stop-color="#84CC16" stop-opacity="0.63"/>
<stop offset="1" stop-color="#0284C7"/>
</linearGradient>
</defs>
</svg>
