<svg width="578" height="96" viewBox="0 0 578 96" fill="none" xmlns="http://www.w3.org/2000/svg">
<mask id="mask0_1368_181" style="mask-type:alpha" maskUnits="userSpaceOnUse" x="61" y="5" width="82" height="86">
<path d="M139.5 70.8334L130.517 63.05C130.22 62.7685 129.847 62.5806 129.444 62.5099C129.041 62.4391 128.626 62.4886 128.251 62.6521C127.875 62.8157 127.557 63.086 127.334 63.4294C127.112 63.7729 126.996 64.1742 127 64.5834V66.6667C127 67.7718 126.561 68.8316 125.78 69.613C124.998 70.3944 123.938 70.8334 122.833 70.8334H114.5C113.395 70.8334 112.335 70.3944 111.554 69.613C110.772 68.8316 110.333 67.7718 110.333 66.6667C110.333 56.0625 93.7042 50.125 74.9167 50C72.154 50 69.5045 51.0975 67.551 53.051C65.5975 55.0045 64.5 57.654 64.5 60.4167C64.5 63.1794 65.5975 65.8289 67.551 67.7824C69.5045 69.7359 72.154 70.8334 74.9167 70.8334C92.2208 70.8334 94.6875 23.7709 98.7 14.5834C99.3778 13.0325 100.423 11.6702 101.746 10.6142C103.069 9.55831 104.629 8.84059 106.291 8.52319C107.954 8.20579 109.669 8.29826 111.287 8.79262C112.906 9.28697 114.38 10.1683 115.581 11.3604C116.783 12.5524 117.676 14.0193 118.183 15.6341C118.69 17.2488 118.796 18.9628 118.492 20.6278C118.188 22.2927 117.482 23.8584 116.437 25.1894C115.391 26.5204 114.037 27.5767 112.492 28.2667M64.5 87.5H139.5" stroke="white" stroke-width="6" stroke-linecap="round" stroke-linejoin="round"/>
</mask>
<g mask="url(#mask0_1368_181)">
<rect x="45" y="-9" width="114" height="114" fill="url(#paint0_linear_1368_181)"/>
</g>
<path d="M516.682 66.2141C514.364 66.2141 512.351 65.7871 510.643 64.9331C508.976 64.0384 507.695 62.6964 506.8 60.9071C505.905 59.1177 505.458 56.8607 505.458 54.1361C505.458 51.5741 505.804 49.0324 506.495 46.5111C507.227 43.9491 508.305 41.6311 509.728 39.5571C511.151 37.4831 512.961 35.8157 515.157 34.5551C517.394 33.2944 520.017 32.6641 523.026 32.6641C524.612 32.6641 526.035 32.8877 527.296 33.3351C528.557 33.7824 529.553 34.5144 530.285 35.5311C531.017 36.5477 531.383 37.9304 531.383 39.6791C531.383 42.0377 530.671 44.0304 529.248 45.6571C527.865 47.2431 526.015 48.4631 523.697 49.3171C521.379 50.1304 518.817 50.5371 516.011 50.5371C515.482 50.5371 514.893 50.5371 514.242 50.5371C513.632 50.4964 513.124 50.4557 512.717 50.4151C512.676 51.0657 512.636 51.7164 512.595 52.3671C512.554 52.9771 512.534 53.5464 512.534 54.0751C512.534 56.2711 512.941 57.9994 513.754 59.2601C514.567 60.4801 516.052 61.0901 518.207 61.0901C519.956 61.0901 521.521 60.6834 522.904 59.8701C524.287 59.0161 525.364 57.8164 526.137 56.2711C526.706 56.4337 527.093 56.7591 527.296 57.2471C527.499 57.7351 527.601 58.2434 527.601 58.7721C527.601 59.9921 527.174 61.1714 526.32 62.3101C525.466 63.4487 524.226 64.3841 522.599 65.1161C520.972 65.8481 519 66.2141 516.682 66.2141ZM513.144 47.4261C514.527 47.4261 515.889 47.2837 517.231 46.9991C518.614 46.7144 519.874 46.2671 521.013 45.6571C522.152 45.0064 523.046 44.1931 523.697 43.2171C524.388 42.2004 524.734 41.0211 524.734 39.6791C524.734 38.4997 524.449 37.6254 523.88 37.0561C523.351 36.4461 522.579 36.1411 521.562 36.1411C520.423 36.1411 519.366 36.5071 518.39 37.2391C517.455 37.9304 516.641 38.8454 515.95 39.9841C515.259 41.1227 514.669 42.3427 514.181 43.6441C513.734 44.9454 513.388 46.2061 513.144 47.4261Z" fill="#84CC16"/>
<path d="M483.009 65.7261L489.109 33.8841L494.904 33.1521L494.172 38.6421C494.944 36.8934 496.103 35.4701 497.649 34.3721C499.194 33.2334 500.922 32.6641 502.834 32.6641C504.826 32.6641 506.27 33.2537 507.165 34.4331C508.1 35.6124 508.568 37.0561 508.568 38.7641C508.568 40.7974 508.019 42.5461 506.921 44.0101C505.823 45.4741 504.379 46.2061 502.59 46.2061C502.102 46.2061 501.593 46.1247 501.065 45.9621C500.577 45.7994 500.19 45.5147 499.906 45.1081C500.434 44.4167 500.861 43.5831 501.187 42.6071C501.512 41.5904 501.675 40.6754 501.675 39.8621C501.675 39.0894 501.492 38.4794 501.126 38.0321C500.8 37.5847 500.251 37.3611 499.479 37.3611C498.503 37.3611 497.649 37.7271 496.917 38.4591C496.185 39.1504 495.575 40.0451 495.087 41.1431C494.599 42.2411 494.192 43.4204 493.867 44.6811C493.582 45.9011 493.338 47.0194 493.135 48.0361L490.146 64.9941L483.009 65.7261Z" fill="#84CC16"/>
<path d="M462.262 66.2141C460.27 66.2141 458.663 65.8278 457.443 65.0551C456.264 64.3231 455.41 63.2861 454.881 61.9441C454.353 60.6021 454.088 59.0974 454.088 57.4301C454.088 56.2508 454.231 54.7054 454.515 52.7941C454.841 50.8828 455.308 48.4021 455.918 45.3521C456.569 42.3021 457.403 38.4794 458.419 33.8841L465.068 33.1521C464.214 37.3001 463.503 40.7364 462.933 43.4611C462.364 46.1451 461.917 48.3411 461.591 50.0491C461.307 51.7571 461.103 53.1601 460.981 54.2581C460.859 55.3154 460.798 56.2711 460.798 57.1251C460.798 58.0198 460.9 58.8941 461.103 59.7481C461.347 60.5614 461.774 61.2324 462.384 61.7611C462.994 62.2898 463.808 62.5541 464.824 62.5541C466.288 62.5541 467.508 62.0661 468.484 61.0901C469.46 60.0734 470.233 58.8128 470.802 57.3081C471.412 55.8034 471.839 54.2988 472.083 52.7941L475.743 33.8841L482.636 33.1521L477.695 58.6501C477.655 59.0161 477.594 59.4431 477.512 59.9311C477.431 60.4191 477.39 60.8461 477.39 61.2121C477.39 61.8221 477.533 62.3101 477.817 62.6761C478.143 63.0421 478.61 63.2454 479.22 63.2861C479.098 63.9774 478.793 64.5468 478.305 64.9941C477.858 65.4008 477.329 65.7058 476.719 65.9091C476.109 66.1124 475.459 66.2141 474.767 66.2141C473.629 66.2141 472.693 65.9091 471.961 65.2991C471.229 64.7298 470.762 63.8758 470.558 62.7371C469.745 63.9571 468.545 64.8314 466.959 65.3601C465.373 65.9294 463.808 66.2141 462.262 66.2141Z" fill="#84CC16"/>
<path d="M443.984 66.275C442.846 66.275 441.849 65.909 440.995 65.177C440.141 64.445 439.714 63.3876 439.714 62.005C439.714 61.1916 439.836 60.053 440.08 58.589C440.324 57.0843 440.609 55.4983 440.934 53.831C441.26 52.1636 441.585 50.5776 441.91 49.073C442.276 47.5276 442.541 46.2873 442.703 45.352L444.472 36.629H440.141L440.385 34.799C442.337 34.067 444.269 33.091 446.18 31.871C448.092 30.651 449.779 29.309 451.243 27.845H453.134L451.914 33.884H456.672L456.123 36.629H451.304L447.095 57.369C446.973 58.0196 446.872 58.6093 446.79 59.138C446.709 59.626 446.648 60.0936 446.607 60.541C446.567 61.639 446.77 62.4116 447.217 62.859C447.665 63.2656 448.478 63.347 449.657 63.103C449.291 63.8756 448.824 64.4856 448.254 64.933C447.726 65.3803 447.095 65.7056 446.363 65.909C445.631 66.153 444.838 66.275 443.984 66.275Z" fill="#84CC16"/>
<path d="M417.368 66.2141C415.294 66.2141 413.606 65.7261 412.305 64.7501C411.044 63.7334 410.109 62.3711 409.499 60.6631C408.929 58.9144 408.645 56.9217 408.645 54.6851C408.645 51.6757 409.051 48.8494 409.865 46.2061C410.678 43.5221 411.837 41.1634 413.342 39.1301C414.887 37.0967 416.676 35.5107 418.71 34.3721C420.743 33.2334 422.98 32.6641 425.42 32.6641C427.412 32.6641 429.507 33.0911 431.703 33.9451L437.864 33.1521L432.984 58.6501C432.943 59.0161 432.882 59.4431 432.801 59.9311C432.719 60.4191 432.679 60.8461 432.679 61.2121C432.679 61.8221 432.821 62.3101 433.106 62.6761C433.431 63.0421 433.919 63.2454 434.57 63.2861C434.366 63.9774 434.021 64.5467 433.533 64.9941C433.085 65.4007 432.557 65.7057 431.947 65.9091C431.377 66.1124 430.727 66.2141 429.995 66.2141C428.897 66.2141 427.961 65.9091 427.189 65.2991C426.416 64.7297 425.969 63.8757 425.847 62.7371C424.789 63.7537 423.529 64.5874 422.065 65.2381C420.641 65.8887 419.076 66.2141 417.368 66.2141ZM420.052 62.5541C421.597 62.5541 422.837 62.0457 423.773 61.0291C424.749 60.0124 425.521 58.7517 426.091 57.2471C426.66 55.7017 427.087 54.2174 427.372 52.7941L430.056 38.2151C429.242 37.5644 428.388 37.0967 427.494 36.8121C426.64 36.4867 425.847 36.3241 425.115 36.3241C423.854 36.3241 422.715 36.6901 421.699 37.4221C420.723 38.1541 419.848 39.1504 419.076 40.4111C418.344 41.6717 417.713 43.1357 417.185 44.8031C416.697 46.4704 416.331 48.2597 416.087 50.1711C415.843 52.0417 415.721 53.9327 415.721 55.8441C415.721 57.7147 416.026 59.3007 416.636 60.6021C417.246 61.9034 418.384 62.5541 420.052 62.5541Z" fill="#84CC16"/>
<path d="M400.784 66.2141C399.524 66.2141 398.507 65.8481 397.734 65.1161C397.002 64.4247 396.636 63.2657 396.636 61.6391C396.636 60.7444 396.758 59.5854 397.002 58.1621C397.287 56.7387 397.612 55.2341 397.978 53.6481C398.344 52.0214 398.71 50.4151 399.076 48.8291C399.442 47.2431 399.747 45.8197 399.991 44.5591C400.276 43.2577 400.418 42.2411 400.418 41.5091C400.418 40.1671 400.073 39.1504 399.381 38.4591C398.69 37.7271 397.775 37.3611 396.636 37.3611C395.05 37.3611 393.708 37.9101 392.61 39.0081C391.512 40.1061 390.618 41.4887 389.926 43.1561C389.235 44.7827 388.727 46.4094 388.401 48.0361L385.107 64.9941L378.153 65.7261L384.375 33.8841L390.17 33.1521L389.438 38.6421C390.536 36.6901 392 35.2057 393.83 34.1891C395.66 33.1724 397.592 32.6641 399.625 32.6641C402.106 32.6641 403.997 33.3147 405.298 34.6161C406.6 35.8767 407.25 37.6661 407.25 39.9841C407.25 41.1227 407.128 42.4444 406.884 43.9491C406.64 45.4537 406.315 47.0601 405.908 48.7681C405.542 50.4354 405.176 52.0621 404.81 53.6481C404.444 55.2341 404.119 56.6777 403.834 57.9791C403.59 59.2804 403.468 60.2971 403.468 61.0291C403.468 61.6391 403.59 62.1474 403.834 62.5541C404.078 62.9607 404.566 63.2047 405.298 63.2861C405.054 64.3027 404.505 65.0347 403.651 65.4821C402.797 65.9701 401.842 66.2141 400.784 66.2141Z" fill="#84CC16"/>
<path d="M357.927 77.0721C356.26 77.0721 354.694 76.9501 353.23 76.7061C351.766 76.5027 350.485 76.1367 349.387 75.6081C348.289 75.0794 347.435 74.4084 346.825 73.5951C346.215 72.8224 345.91 71.8667 345.91 70.7281C345.951 69.3861 346.357 68.3084 347.13 67.4951C347.903 66.6817 349.001 66.2751 350.424 66.2751C351.237 66.2751 351.99 66.4174 352.681 66.7021C353.372 66.9867 353.982 67.4341 354.511 68.0441C354.186 68.2881 353.921 68.5931 353.718 68.9591C353.515 69.3657 353.413 69.8334 353.413 70.3621C353.413 71.4601 353.921 72.2531 354.938 72.7411C355.995 73.2291 357.561 73.4731 359.635 73.4731C361.018 73.4731 362.4 73.2494 363.783 72.8021C365.206 72.3954 366.365 71.7244 367.26 70.7891C368.195 69.8537 368.663 68.6337 368.663 67.1291C368.704 65.7871 368.053 64.9737 366.711 64.6891C365.41 64.3637 363.254 64.2011 360.245 64.2011C358.456 64.2011 356.89 64.0587 355.548 63.7741C354.247 63.4487 353.25 62.9607 352.559 62.3101C351.868 61.6187 351.522 60.7037 351.522 59.5651C351.563 58.3857 351.99 57.2267 352.803 56.0881C353.616 54.9087 354.653 53.9327 355.914 53.1601C354.369 52.4687 353.169 51.4927 352.315 50.2321C351.461 48.9714 351.034 47.4057 351.034 45.5351C351.034 42.6884 351.705 40.3297 353.047 38.4591C354.389 36.5477 356.178 35.1041 358.415 34.1281C360.692 33.1521 363.153 32.6641 365.796 32.6641C367.016 32.6641 368.033 32.7454 368.846 32.9081C369.659 33.0707 370.391 33.2334 371.042 33.3961C371.693 33.5181 372.364 33.5791 373.055 33.5791C374.844 33.5791 376.146 33.1724 376.959 32.3591C377.772 31.5051 378.179 30.4884 378.179 29.3091C378.179 28.3737 377.874 27.4181 377.264 26.4421C377.793 26.0354 378.362 25.7101 378.972 25.4661C379.582 25.1814 380.212 25.0391 380.863 25.0391C381.798 25.0391 382.53 25.3644 383.059 26.0151C383.588 26.6251 383.852 27.4181 383.852 28.3941C383.852 29.6547 383.486 30.8747 382.754 32.0541C382.022 33.1927 381.005 34.1687 379.704 34.9821C378.403 35.7547 376.918 36.2631 375.251 36.5071C375.658 37.1577 375.963 37.8897 376.166 38.7031C376.41 39.5164 376.532 40.4111 376.532 41.3871C376.532 44.0711 375.861 46.3687 374.519 48.2801C373.218 50.1914 371.449 51.6554 369.212 52.6721C366.975 53.6481 364.474 54.1361 361.709 54.1361C361.302 54.1361 360.896 54.1361 360.489 54.1361C360.123 54.0954 359.737 54.0547 359.33 54.0141C358.923 54.2987 358.578 54.6444 358.293 55.0511C358.008 55.4171 357.866 55.9051 357.866 56.5151C357.866 57.3691 358.334 57.8977 359.269 58.1011C360.204 58.2637 361.607 58.3451 363.478 58.3451H366.894C369.985 58.3451 372.201 58.9347 373.543 60.1141C374.926 61.2527 375.617 62.8184 375.617 64.8111C375.617 66.8444 375.068 68.6134 373.97 70.1181C372.913 71.6634 371.51 72.9444 369.761 73.9611C368.053 74.9777 366.142 75.7504 364.027 76.2791C361.953 76.8077 359.92 77.0721 357.927 77.0721ZM362.746 51.0861C364.454 51.0861 365.816 50.5777 366.833 49.5611C367.89 48.5444 368.663 47.3041 369.151 45.8401C369.639 44.3354 369.883 42.8714 369.883 41.4481C369.883 39.8214 369.476 38.4794 368.663 37.4221C367.85 36.3647 366.569 35.8361 364.82 35.8361C363.519 35.8361 362.4 36.1207 361.465 36.6901C360.57 37.2187 359.838 37.9711 359.269 38.9471C358.7 39.8824 358.273 40.9601 357.988 42.1801C357.744 43.4001 357.622 44.6404 357.622 45.9011C357.622 47.5277 358.069 48.8087 358.964 49.7441C359.859 50.6387 361.119 51.0861 362.746 51.0861Z" fill="#84CC16"/>
<path d="M341.342 66.2141C340.041 66.2141 339.024 65.8481 338.292 65.1161C337.56 64.3841 337.194 63.3674 337.194 62.0661C337.194 61.5781 337.235 60.9884 337.316 60.2971C337.398 59.6057 337.499 58.8941 337.621 58.1621C337.743 57.3894 337.865 56.6777 337.987 56.0271C338.15 55.3357 338.272 54.7461 338.353 54.2581L342.501 33.8841L349.455 33.1521L344.331 58.6501C344.291 58.9754 344.23 59.4024 344.148 59.9311C344.067 60.4191 344.026 60.8461 344.026 61.2121C344.026 61.8221 344.169 62.3101 344.453 62.6761C344.779 63.0421 345.246 63.2454 345.856 63.2861C345.612 64.3027 345.043 65.0347 344.148 65.4821C343.294 65.9701 342.359 66.2141 341.342 66.2141ZM347.503 28.5161C346.202 28.5161 345.124 28.2111 344.27 27.6011C343.416 26.9504 342.989 25.9947 342.989 24.7341C342.989 23.3921 343.437 22.4161 344.331 21.8061C345.226 21.1554 346.324 20.8301 347.625 20.8301C348.927 20.8301 350.004 21.1554 350.858 21.8061C351.712 22.4161 352.139 23.3514 352.139 24.6121C352.139 25.9541 351.692 26.9504 350.797 27.6011C349.903 28.2111 348.805 28.5161 347.503 28.5161Z" fill="#84CC16"/>
<path d="M319.94 66.3359C317.419 66.3359 315.263 65.9496 313.474 65.1769C311.725 64.4449 310.383 63.4079 309.448 62.0659C308.513 60.7239 308.045 59.1582 308.045 57.3689C308.045 55.8642 308.33 54.5629 308.899 53.4649C309.509 52.3669 310.322 51.5129 311.339 50.9029C312.356 50.2522 313.494 49.9269 314.755 49.9269C315.65 49.9269 316.422 50.0896 317.073 50.4149C317.764 50.7403 318.273 51.1876 318.598 51.7569C318.964 52.2856 319.147 52.9362 319.147 53.7089C319.147 53.9122 319.127 54.1359 319.086 54.3799C319.045 54.6239 319.005 54.8476 318.964 55.0509C318.801 54.9696 318.598 54.9289 318.354 54.9289C318.151 54.8883 317.947 54.8679 317.744 54.8679C316.931 54.8679 316.239 55.1526 315.67 55.7219C315.101 56.2506 314.816 57.0639 314.816 58.1619C314.816 59.5852 315.385 60.6629 316.524 61.3949C317.703 62.0862 319.147 62.4319 320.855 62.4319C322.156 62.4319 323.376 62.1676 324.515 61.6389C325.654 61.1102 326.569 60.3376 327.26 59.3209C327.992 58.3042 328.358 57.0436 328.358 55.5389C328.358 54.2782 328.033 53.1396 327.382 52.1229C326.772 51.1062 325.979 50.1506 325.003 49.2559C324.068 48.3612 323.051 47.4869 321.953 46.6329C320.733 45.6569 319.554 44.6606 318.415 43.6439C317.276 42.5866 316.321 41.3869 315.548 40.0449C314.816 38.7029 314.45 37.1372 314.45 35.3479C314.45 33.4772 314.857 31.8099 315.67 30.3459C316.483 28.8412 317.561 27.6009 318.903 26.6249C320.286 25.6082 321.851 24.8356 323.6 24.3069C325.389 23.7782 327.24 23.5139 329.151 23.5139C331.184 23.5139 332.953 23.7986 334.458 24.3679C335.963 24.8966 337.122 25.6692 337.935 26.6859C338.789 27.7026 339.216 28.9022 339.216 30.2849C339.216 31.5456 338.972 32.6639 338.484 33.6399C337.996 34.6159 337.325 35.3886 336.471 35.9579C335.658 36.4866 334.743 36.7509 333.726 36.7509C332.953 36.7509 332.282 36.6289 331.713 36.3849C331.144 36.1409 330.737 35.8156 330.493 35.4089C330.981 35.1242 331.428 34.6159 331.835 33.8839C332.242 33.1519 332.445 32.3589 332.445 31.5049C332.445 30.2442 332.059 29.2479 331.286 28.5159C330.513 27.7432 329.253 27.3569 327.504 27.3569C325.715 27.3569 324.21 27.8856 322.99 28.9429C321.811 30.0002 321.221 31.4236 321.221 33.2129C321.221 34.4736 321.546 35.6326 322.197 36.6899C322.848 37.7066 323.681 38.6622 324.698 39.5569C325.755 40.4109 326.833 41.2649 327.931 42.1189C329.151 43.0136 330.31 43.9896 331.408 45.0469C332.547 46.1042 333.462 47.3242 334.153 48.7069C334.885 50.0489 335.251 51.6349 335.251 53.4649C335.251 55.4982 334.804 57.3282 333.909 58.9549C333.055 60.5409 331.876 61.8829 330.371 62.9809C328.907 64.0789 327.26 64.9126 325.43 65.4819C323.6 66.0512 321.77 66.3359 319.94 66.3359Z" fill="#84CC16"/>
<path d="M281.294 66.214C279.993 66.214 278.956 65.848 278.183 65.116C277.451 64.384 277.085 63.3673 277.085 62.066C277.085 61.6187 277.126 61.09 277.207 60.48C277.288 59.87 277.39 59.1177 277.512 58.223C277.675 57.3283 277.898 56.21 278.183 54.868C278.468 53.526 278.793 51.9197 279.159 50.049C279.525 48.1783 279.972 45.962 280.501 43.4C281.03 40.838 281.64 37.91 282.331 34.616C282.738 32.298 283.083 30.041 283.368 27.845C283.653 25.6083 283.795 23.7377 283.795 22.233C283.795 21.745 283.775 21.318 283.734 20.952C283.693 20.5453 283.632 20.1793 283.551 19.854C283.958 19.61 284.446 19.4067 285.015 19.244C285.584 19.0813 286.174 19 286.784 19C287.841 19 288.817 19.3253 289.712 19.976C290.647 20.586 291.115 21.684 291.115 23.27C291.115 23.5953 291.034 24.246 290.871 25.222C290.708 26.198 290.505 27.3367 290.261 28.638C290.017 29.8987 289.753 31.2203 289.468 32.603C289.224 33.945 289 35.165 288.797 36.263C287.821 40.9803 287.028 44.8437 286.418 47.853C285.808 50.8217 285.32 53.16 284.954 54.868C284.629 56.576 284.385 57.8367 284.222 58.65C284.1 59.4633 284.019 60.0327 283.978 60.358C283.937 60.6833 283.917 60.968 283.917 61.212C283.917 61.822 284.059 62.31 284.344 62.676C284.669 63.042 285.137 63.2453 285.747 63.286C285.625 63.9773 285.32 64.5467 284.832 64.994C284.385 65.4007 283.856 65.7057 283.246 65.909C282.636 66.1123 281.985 66.214 281.294 66.214Z" fill="#84CC16"/>
<path d="M268.857 66.2141C267.556 66.2141 266.539 65.8481 265.807 65.1161C265.075 64.3841 264.709 63.3674 264.709 62.0661C264.709 61.5781 264.75 60.9884 264.831 60.2971C264.912 59.6057 265.014 58.8941 265.136 58.1621C265.258 57.3894 265.38 56.6777 265.502 56.0271C265.665 55.3357 265.787 54.7461 265.868 54.2581L270.016 33.8841L276.97 33.1521L271.846 58.6501C271.805 58.9754 271.744 59.4024 271.663 59.9311C271.582 60.4191 271.541 60.8461 271.541 61.2121C271.541 61.8221 271.683 62.3101 271.968 62.6761C272.293 63.0421 272.761 63.2454 273.371 63.2861C273.127 64.3027 272.558 65.0347 271.663 65.4821C270.809 65.9701 269.874 66.2141 268.857 66.2141ZM275.018 28.5161C273.717 28.5161 272.639 28.2111 271.785 27.6011C270.931 26.9504 270.504 25.9947 270.504 24.7341C270.504 23.3921 270.951 22.4161 271.846 21.8061C272.741 21.1554 273.839 20.8301 275.14 20.8301C276.441 20.8301 277.519 21.1554 278.373 21.8061C279.227 22.4161 279.654 23.3514 279.654 24.6121C279.654 25.9541 279.207 26.9504 278.312 27.6011C277.417 28.2111 276.319 28.5161 275.018 28.5161Z" fill="#84CC16"/>
<path d="M244.375 66.2141C242.301 66.2141 240.613 65.7261 239.312 64.7501C238.051 63.7334 237.116 62.3711 236.506 60.6631C235.937 58.9144 235.652 56.9217 235.652 54.6851C235.652 51.6757 236.059 48.8494 236.872 46.2061C237.685 43.5221 238.844 41.1634 240.349 39.1301C241.894 37.0967 243.684 35.5107 245.717 34.3721C247.75 33.2334 249.987 32.6641 252.427 32.6641C254.42 32.6641 256.514 33.0911 258.71 33.9451L264.871 33.1521L259.991 58.6501C259.95 59.0161 259.889 59.4431 259.808 59.9311C259.727 60.4191 259.686 60.8461 259.686 61.2121C259.686 61.8221 259.828 62.3101 260.113 62.6761C260.438 63.0421 260.926 63.2454 261.577 63.2861C261.374 63.9774 261.028 64.5467 260.54 64.9941C260.093 65.4007 259.564 65.7057 258.954 65.9091C258.385 66.1124 257.734 66.2141 257.002 66.2141C255.904 66.2141 254.969 65.9091 254.196 65.2991C253.423 64.7297 252.976 63.8757 252.854 62.7371C251.797 63.7537 250.536 64.5874 249.072 65.2381C247.649 65.8887 246.083 66.2141 244.375 66.2141ZM247.059 62.5541C248.604 62.5541 249.845 62.0457 250.78 61.0291C251.756 60.0124 252.529 58.7517 253.098 57.2471C253.667 55.7017 254.094 54.2174 254.379 52.7941L257.063 38.2151C256.25 37.5644 255.396 37.0967 254.501 36.8121C253.647 36.4867 252.854 36.3241 252.122 36.3241C250.861 36.3241 249.723 36.6901 248.706 37.4221C247.73 38.1541 246.856 39.1504 246.083 40.4111C245.351 41.6717 244.721 43.1357 244.192 44.8031C243.704 46.4704 243.338 48.2597 243.094 50.1711C242.85 52.0417 242.728 53.9327 242.728 55.8441C242.728 57.7147 243.033 59.3007 243.643 60.6021C244.253 61.9034 245.392 62.5541 247.059 62.5541Z" fill="#84CC16"/>
<path d="M227.724 66.2141C226.464 66.2141 225.447 65.8481 224.674 65.1161C223.942 64.4247 223.576 63.2657 223.576 61.6391C223.576 60.7444 223.698 59.5854 223.942 58.1621C224.227 56.7387 224.552 55.2341 224.918 53.6481C225.284 52.0214 225.65 50.4151 226.016 48.8291C226.382 47.2024 226.687 45.7587 226.931 44.4981C227.216 43.1967 227.358 42.2004 227.358 41.5091C227.358 40.1671 226.992 39.1504 226.26 38.4591C225.569 37.7271 224.593 37.3611 223.332 37.3611C222.072 37.3611 220.974 37.6864 220.038 38.3371C219.144 38.9877 218.371 39.8417 217.72 40.8991C217.11 41.9564 216.602 43.1154 216.195 44.3761C215.789 45.5961 215.484 46.8161 215.28 48.0361L211.986 64.9941L205.032 65.7261L208.143 50.2931C208.265 49.7237 208.408 49.0527 208.57 48.2801C208.733 47.5074 208.875 46.7144 208.997 45.9011C209.16 45.0877 209.282 44.3151 209.363 43.5831C209.485 42.8104 209.546 42.1394 209.546 41.5701C209.546 40.2281 209.201 39.1911 208.509 38.4591C207.859 37.7271 206.903 37.3611 205.642 37.3611C204.382 37.3611 203.304 37.6864 202.409 38.3371C201.555 38.9471 200.823 39.7807 200.213 40.8381C199.644 41.8547 199.176 42.9934 198.81 44.2541C198.444 45.4741 198.139 46.7347 197.895 48.0361L194.601 64.9941L187.647 65.7261L193.869 33.8841L199.664 33.1521L198.932 38.6421C199.99 36.5681 201.372 35.0634 203.08 34.1281C204.788 33.1521 206.74 32.6641 208.936 32.6641C211.092 32.6641 212.739 33.1317 213.877 34.0671C215.016 34.9617 215.768 36.3444 216.134 38.2151C217.232 36.2224 218.696 34.7991 220.526 33.9451C222.356 33.0911 224.288 32.6641 226.321 32.6641C228.924 32.6641 230.876 33.3147 232.177 34.6161C233.479 35.8767 234.129 37.6661 234.129 39.9841C234.129 41.1227 234.007 42.4444 233.763 43.9491C233.519 45.4537 233.214 47.0601 232.848 48.7681C232.482 50.4354 232.116 52.0621 231.75 53.6481C231.384 55.2341 231.059 56.6777 230.774 57.9791C230.53 59.2804 230.408 60.2971 230.408 61.0291C230.408 61.5984 230.53 62.1067 230.774 62.5541C231.018 62.9607 231.506 63.2047 232.238 63.2861C231.994 64.3027 231.425 65.0347 230.53 65.4821C229.676 65.9701 228.741 66.2141 227.724 66.2141Z" fill="#84CC16"/>
<path d="M173.973 66.3359C172.021 66.3359 170.232 66.0716 168.605 65.5429C166.978 65.0549 165.575 64.3432 164.396 63.4079C163.257 62.4726 162.363 61.3542 161.712 60.0529C161.102 58.7109 160.797 57.2266 160.797 55.5999C160.797 53.9326 161.122 52.3669 161.773 50.9029C162.464 49.4389 163.481 48.0969 164.823 46.8769C166.165 45.6162 167.832 44.5386 169.825 43.6439C168.564 42.9119 167.609 41.8952 166.958 40.5939C166.348 39.2926 166.043 37.7879 166.043 36.0799C166.084 34.6972 166.47 33.3552 167.202 32.0539C167.934 30.7526 168.91 29.5732 170.13 28.5159C171.35 27.4586 172.672 26.7266 174.095 26.3199L177.938 27.4179C175.945 28.8006 174.583 30.2849 173.851 31.8709C173.119 33.4162 172.733 34.8802 172.692 36.2629C172.651 37.3609 172.773 38.3776 173.058 39.3129C173.343 40.2482 173.79 41.1226 174.4 41.9359C174.725 41.9359 175.193 41.9359 175.803 41.9359C176.454 41.9359 177.125 41.9562 177.816 41.9969C178.548 41.9969 179.158 41.9969 179.646 41.9969C180.215 41.9969 181.008 41.9969 182.025 41.9969C183.082 41.9562 184.038 41.8749 184.892 41.7529C184.973 41.9562 185.034 42.1596 185.075 42.3629C185.116 42.5256 185.136 42.7289 185.136 42.9729C185.136 44.0709 184.709 44.9656 183.855 45.6569C183.042 46.3076 181.883 46.6329 180.378 46.6329C179.402 46.6329 178.446 46.5719 177.511 46.4499C176.576 46.2872 175.457 46.0432 174.156 45.7179C172.245 46.8972 170.801 48.1986 169.825 49.6219C168.89 51.0452 168.422 52.5906 168.422 54.2579C168.422 56.4946 169.154 58.1822 170.618 59.3209C172.082 60.4189 173.871 60.9679 175.986 60.9679C177.735 60.9679 179.443 60.6019 181.11 59.8699C182.777 59.1379 184.221 58.2229 185.441 57.1249C185.807 57.3282 186.071 57.6332 186.234 58.0399C186.397 58.4059 186.478 58.8126 186.478 59.2599C186.478 60.1952 186.132 61.0899 185.441 61.9439C184.79 62.7979 183.875 63.5502 182.696 64.2009C181.557 64.8516 180.236 65.3599 178.731 65.7259C177.226 66.1326 175.64 66.3359 173.973 66.3359ZM155.978 41.2039C154.717 41.2039 153.64 40.9192 152.745 40.3499C151.85 39.7399 151.159 38.9062 150.671 37.8489C150.224 36.7509 150 35.4902 150 34.0669C150 32.6436 150.264 31.2202 150.793 29.7969C151.322 28.3329 152.155 27.0316 153.294 25.8929C154.433 24.7542 155.876 23.8392 157.625 23.1479C159.374 22.4566 161.448 22.1109 163.847 22.1109C166.124 22.1109 168.341 22.2736 170.496 22.5989C172.651 22.9242 174.766 23.2699 176.84 23.6359C178.914 23.9612 180.927 24.1239 182.879 24.1239C184.465 24.1239 185.888 24.0019 187.149 23.7579C188.45 23.5139 189.67 22.8632 190.809 21.8059C191.134 22.1719 191.399 22.6396 191.602 23.2089C191.846 23.7376 191.948 24.2662 191.907 24.7949C191.907 25.6082 191.683 26.4216 191.236 27.2349C190.829 28.0076 190.138 28.6582 189.162 29.1869C188.227 29.6749 187.007 29.9189 185.502 29.9189C184.404 29.9189 183.184 29.7969 181.842 29.5529C180.541 29.3089 179.138 28.9632 177.633 28.5159C176.128 28.0279 174.502 27.4789 172.753 26.8689L172.631 26.6249C171.411 26.1776 170.232 25.8116 169.093 25.5269C167.954 25.2422 166.816 25.0999 165.677 25.0999C162.912 25.0999 160.777 25.8726 159.272 27.4179C157.767 28.9632 157.015 31.1186 157.015 33.8839C157.015 35.0226 157.157 36.1409 157.442 37.2389C157.767 38.3369 158.235 39.3942 158.845 40.4109C158.479 40.6956 158.052 40.8989 157.564 41.0209C157.117 41.1429 156.588 41.2039 155.978 41.2039Z" fill="#84CC16"/>
<defs>
<linearGradient id="paint0_linear_1368_181" x1="21.4875" y1="-25.7437" x2="179.306" y2="115.687" gradientUnits="userSpaceOnUse">
<stop stop-color="#0EA5E9"/>
<stop offset="0.737383" stop-color="#84CC16" stop-opacity="0.63"/>
<stop offset="1" stop-color="#0284C7"/>
</linearGradient>
</defs>
</svg>
